<mxfile host="app.diagrams.net" agent="Mozilla/5.0 (Windows NT 10.0; Win64; x64) AppleWebKit/537.36 (KHTML, like Gecko) Chrome/131.0.0.0 Safari/537.36 Edg/131.0.0.0" version="24.9.1">
  <diagram name="Sida-1" id="LLwRcQUV-iWhKk2GZlTs">
    <mxGraphModel dx="2506" dy="921" grid="1" gridSize="10" guides="1" tooltips="1" connect="1" arrows="1" fold="1" page="1" pageScale="1" pageWidth="827" pageHeight="1169" math="0" shadow="0">
      <root>
        <mxCell id="0" />
        <mxCell id="1" parent="0" />
        <mxCell id="pzw-wz2uEHUIHefaO9zh-11" style="edgeStyle=orthogonalEdgeStyle;rounded=0;orthogonalLoop=1;jettySize=auto;html=1;endArrow=diamondThin;endFill=1;" parent="1" source="-3MfIwJguE4MF49JpUE5-37" target="pzw-wz2uEHUIHefaO9zh-10" edge="1">
          <mxGeometry relative="1" as="geometry" />
        </mxCell>
        <mxCell id="AoLBbodpri9zv-CaXp16-16" style="edgeStyle=orthogonalEdgeStyle;rounded=0;orthogonalLoop=1;jettySize=auto;html=1;endArrow=diamondThin;endFill=0;" parent="1" source="-3MfIwJguE4MF49JpUE5-37" target="pzw-wz2uEHUIHefaO9zh-15" edge="1">
          <mxGeometry relative="1" as="geometry" />
        </mxCell>
        <mxCell id="-3MfIwJguE4MF49JpUE5-37" value="Account" style="swimlane;fontStyle=1;align=center;verticalAlign=top;childLayout=stackLayout;horizontal=1;startSize=26;horizontalStack=0;resizeParent=1;resizeParentMax=0;resizeLast=0;collapsible=1;marginBottom=0;whiteSpace=wrap;html=1;fillColor=#ffe6cc;strokeColor=#d79b00;" parent="1" vertex="1">
          <mxGeometry x="160" y="330" width="160" height="190" as="geometry" />
        </mxCell>
        <mxCell id="-3MfIwJguE4MF49JpUE5-38" value="+ Name : string&lt;div&gt;&lt;span style=&quot;background-color: initial;&quot;&gt;+ Balance : decimal&lt;/span&gt;&lt;div&gt;+ Currency : ICurrency&lt;/div&gt;&lt;div&gt;+ History : List&amp;lt;string&amp;gt;&lt;/div&gt;&lt;div&gt;+ Loans : List&amp;lt;Loan&amp;gt;&lt;/div&gt;&lt;/div&gt;" style="text;strokeColor=none;fillColor=none;align=left;verticalAlign=top;spacingLeft=4;spacingRight=4;overflow=hidden;rotatable=0;points=[[0,0.5],[1,0.5]];portConstraint=eastwest;whiteSpace=wrap;html=1;" parent="-3MfIwJguE4MF49JpUE5-37" vertex="1">
          <mxGeometry y="26" width="160" height="84" as="geometry" />
        </mxCell>
        <mxCell id="-3MfIwJguE4MF49JpUE5-39" value="" style="line;strokeWidth=1;fillColor=none;align=left;verticalAlign=middle;spacingTop=-1;spacingLeft=3;spacingRight=3;rotatable=0;labelPosition=right;points=[];portConstraint=eastwest;strokeColor=inherit;" parent="-3MfIwJguE4MF49JpUE5-37" vertex="1">
          <mxGeometry y="110" width="160" height="8" as="geometry" />
        </mxCell>
        <mxCell id="-3MfIwJguE4MF49JpUE5-40" value="+ Show() : void&lt;div&gt;+ ShowHistory() : void&lt;/div&gt;&lt;div&gt;+ Add(decimal) : bool&lt;/div&gt;&lt;div&gt;+ Subtract(decimal) : bool&lt;/div&gt;" style="text;strokeColor=none;fillColor=none;align=left;verticalAlign=top;spacingLeft=4;spacingRight=4;overflow=hidden;rotatable=0;points=[[0,0.5],[1,0.5]];portConstraint=eastwest;whiteSpace=wrap;html=1;" parent="-3MfIwJguE4MF49JpUE5-37" vertex="1">
          <mxGeometry y="118" width="160" height="72" as="geometry" />
        </mxCell>
        <mxCell id="-3MfIwJguE4MF49JpUE5-49" value="Bank" style="swimlane;fontStyle=1;align=center;verticalAlign=top;childLayout=stackLayout;horizontal=1;startSize=26;horizontalStack=0;resizeParent=1;resizeParentMax=0;resizeLast=0;collapsible=1;marginBottom=0;whiteSpace=wrap;html=1;fillColor=#f8cecc;strokeColor=#b85450;" parent="1" vertex="1">
          <mxGeometry x="370" width="160" height="168" as="geometry" />
        </mxCell>
        <mxCell id="-3MfIwJguE4MF49JpUE5-50" value="+ Users : List&amp;lt;User&amp;gt;" style="text;strokeColor=none;fillColor=none;align=left;verticalAlign=top;spacingLeft=4;spacingRight=4;overflow=hidden;rotatable=0;points=[[0,0.5],[1,0.5]];portConstraint=eastwest;whiteSpace=wrap;html=1;" parent="-3MfIwJguE4MF49JpUE5-49" vertex="1">
          <mxGeometry y="26" width="160" height="24" as="geometry" />
        </mxCell>
        <mxCell id="-3MfIwJguE4MF49JpUE5-53" value="" style="line;strokeWidth=1;fillColor=none;align=left;verticalAlign=middle;spacingTop=-1;spacingLeft=3;spacingRight=3;rotatable=0;labelPosition=right;points=[];portConstraint=eastwest;strokeColor=inherit;" parent="-3MfIwJguE4MF49JpUE5-49" vertex="1">
          <mxGeometry y="50" width="160" height="8" as="geometry" />
        </mxCell>
        <mxCell id="-3MfIwJguE4MF49JpUE5-52" value="+ RunProgram() : void&lt;div&gt;+ AddUser(User) : void&lt;/div&gt;&lt;div&gt;+ CreateUser() : void&lt;/div&gt;&lt;div&gt;+ LoadUsers() : void&lt;/div&gt;&lt;div&gt;+ ArchiveUsers() : void&lt;/div&gt;&lt;div&gt;+ LoanRequirement() : bool&lt;/div&gt;" style="text;strokeColor=none;fillColor=none;align=left;verticalAlign=top;spacingLeft=4;spacingRight=4;overflow=hidden;rotatable=0;points=[[0,0.5],[1,0.5]];portConstraint=eastwest;whiteSpace=wrap;html=1;" parent="-3MfIwJguE4MF49JpUE5-49" vertex="1">
          <mxGeometry y="58" width="160" height="110" as="geometry" />
        </mxCell>
        <mxCell id="OuYfMwiPj5RRIvVf8Grc-1" value="DataBase" style="swimlane;fontStyle=1;align=center;verticalAlign=top;childLayout=stackLayout;horizontal=1;startSize=26;horizontalStack=0;resizeParent=1;resizeParentMax=0;resizeLast=0;collapsible=1;marginBottom=0;whiteSpace=wrap;html=1;fillColor=#e1d5e7;strokeColor=#9673a6;" parent="1" vertex="1">
          <mxGeometry x="400" y="240" width="250" height="160" as="geometry" />
        </mxCell>
        <mxCell id="OuYfMwiPj5RRIvVf8Grc-2" value="- options : JsonSerializerOptions&amp;nbsp; {readonly}" style="text;strokeColor=none;fillColor=none;align=left;verticalAlign=top;spacingLeft=4;spacingRight=4;overflow=hidden;rotatable=0;points=[[0,0.5],[1,0.5]];portConstraint=eastwest;whiteSpace=wrap;html=1;" parent="OuYfMwiPj5RRIvVf8Grc-1" vertex="1">
          <mxGeometry y="26" width="250" height="24" as="geometry" />
        </mxCell>
        <mxCell id="OuYfMwiPj5RRIvVf8Grc-3" value="" style="line;strokeWidth=1;fillColor=none;align=left;verticalAlign=middle;spacingTop=-1;spacingLeft=3;spacingRight=3;rotatable=0;labelPosition=right;points=[];portConstraint=eastwest;strokeColor=inherit;" parent="OuYfMwiPj5RRIvVf8Grc-1" vertex="1">
          <mxGeometry y="50" width="250" height="8" as="geometry" />
        </mxCell>
        <mxCell id="OuYfMwiPj5RRIvVf8Grc-4" value="- WriteToJsonFile(string, T, bool) : void&lt;div&gt;- ReadFromJsonFile(string): T&lt;/div&gt;&lt;div&gt;&lt;br&gt;&lt;div&gt;+ArchiveUsers(List&amp;lt;User&amp;gt;) : void&lt;/div&gt;&lt;/div&gt;&lt;div&gt;+ LoadUsers() : List&amp;lt;User&amp;gt;&lt;/div&gt;" style="text;strokeColor=none;fillColor=none;align=left;verticalAlign=top;spacingLeft=4;spacingRight=4;overflow=hidden;rotatable=0;points=[[0,0.5],[1,0.5]];portConstraint=eastwest;whiteSpace=wrap;html=1;" parent="OuYfMwiPj5RRIvVf8Grc-1" vertex="1">
          <mxGeometry y="58" width="250" height="102" as="geometry" />
        </mxCell>
        <mxCell id="pzw-wz2uEHUIHefaO9zh-7" value="User" style="swimlane;fontStyle=1;align=center;verticalAlign=top;childLayout=stackLayout;horizontal=1;startSize=26;horizontalStack=0;resizeParent=1;resizeParentMax=0;resizeLast=0;collapsible=1;marginBottom=0;whiteSpace=wrap;html=1;fillColor=#dae8fc;strokeColor=#6c8ebf;" parent="1" vertex="1">
          <mxGeometry x="40" y="100" width="300" height="190" as="geometry" />
        </mxCell>
        <mxCell id="pzw-wz2uEHUIHefaO9zh-8" value="+ Name : string&lt;div&gt;+ Password : string&lt;/div&gt;&lt;div&gt;+ IsAdmin : bool&lt;/div&gt;&lt;div&gt;+ Accounts : List&amp;lt;Accounts&amp;gt;&lt;/div&gt;" style="text;strokeColor=none;fillColor=none;align=left;verticalAlign=top;spacingLeft=4;spacingRight=4;overflow=hidden;rotatable=0;points=[[0,0.5],[1,0.5]];portConstraint=eastwest;whiteSpace=wrap;html=1;" parent="pzw-wz2uEHUIHefaO9zh-7" vertex="1">
          <mxGeometry y="26" width="300" height="74" as="geometry" />
        </mxCell>
        <mxCell id="pzw-wz2uEHUIHefaO9zh-9" value="" style="line;strokeWidth=1;fillColor=none;align=left;verticalAlign=middle;spacingTop=-1;spacingLeft=3;spacingRight=3;rotatable=0;labelPosition=right;points=[];portConstraint=eastwest;strokeColor=inherit;" parent="pzw-wz2uEHUIHefaO9zh-7" vertex="1">
          <mxGeometry y="100" width="300" height="8" as="geometry" />
        </mxCell>
        <mxCell id="pzw-wz2uEHUIHefaO9zh-10" value="+ ShowAccounts() : void&lt;div&gt;+ TransferFunds(decimal, Account, Account) : bool&lt;/div&gt;&lt;div&gt;+ Withdraw(decimal, Account) : bool&lt;/div&gt;&lt;div&gt;+ Exchange(decimal, string, Account, Account) : bool&lt;/div&gt;&lt;div&gt;+ Login() : bool&amp;nbsp;&lt;/div&gt;" style="text;strokeColor=none;fillColor=none;align=left;verticalAlign=top;spacingLeft=4;spacingRight=4;overflow=hidden;rotatable=0;points=[[0,0.5],[1,0.5]];portConstraint=eastwest;whiteSpace=wrap;html=1;" parent="pzw-wz2uEHUIHefaO9zh-7" vertex="1">
          <mxGeometry y="108" width="300" height="82" as="geometry" />
        </mxCell>
        <mxCell id="pzw-wz2uEHUIHefaO9zh-12" style="edgeStyle=orthogonalEdgeStyle;rounded=0;orthogonalLoop=1;jettySize=auto;html=1;entryX=0.667;entryY=0;entryDx=0;entryDy=0;entryPerimeter=0;endArrow=diamondThin;endFill=1;" parent="1" source="-3MfIwJguE4MF49JpUE5-49" target="pzw-wz2uEHUIHefaO9zh-7" edge="1">
          <mxGeometry relative="1" as="geometry" />
        </mxCell>
        <mxCell id="pzw-wz2uEHUIHefaO9zh-14" value="UI" style="swimlane;fontStyle=1;align=center;verticalAlign=top;childLayout=stackLayout;horizontal=1;startSize=26;horizontalStack=0;resizeParent=1;resizeParentMax=0;resizeLast=0;collapsible=1;marginBottom=0;whiteSpace=wrap;html=1;fillColor=#b1ddf0;strokeColor=#10739e;" parent="1" vertex="1">
          <mxGeometry x="-140" y="310" width="270" height="160" as="geometry" />
        </mxCell>
        <mxCell id="pzw-wz2uEHUIHefaO9zh-15" value="+ field: type" style="text;strokeColor=none;fillColor=none;align=left;verticalAlign=top;spacingLeft=4;spacingRight=4;overflow=hidden;rotatable=0;points=[[0,0.5],[1,0.5]];portConstraint=eastwest;whiteSpace=wrap;html=1;" parent="pzw-wz2uEHUIHefaO9zh-14" vertex="1">
          <mxGeometry y="26" width="270" height="26" as="geometry" />
        </mxCell>
        <mxCell id="pzw-wz2uEHUIHefaO9zh-16" value="" style="line;strokeWidth=1;fillColor=none;align=left;verticalAlign=middle;spacingTop=-1;spacingLeft=3;spacingRight=3;rotatable=0;labelPosition=right;points=[];portConstraint=eastwest;strokeColor=inherit;" parent="pzw-wz2uEHUIHefaO9zh-14" vertex="1">
          <mxGeometry y="52" width="270" height="8" as="geometry" />
        </mxCell>
        <mxCell id="pzw-wz2uEHUIHefaO9zh-17" value="+ ReadUserName() : string&lt;div&gt;+ ReadPassword() : string&lt;/div&gt;&lt;div&gt;+ Menu(string[]) : int&lt;/div&gt;&lt;div&gt;+ MainMenu(Dictionary&amp;lt;string, string[]&amp;gt;) : string&lt;/div&gt;&lt;div&gt;+ SetColor(bool) : void&lt;/div&gt;&lt;div&gt;+ Transfer(User&lt;span style=&quot;background-color: initial;&quot;&gt;) : Account []&lt;/span&gt;&lt;/div&gt;&lt;div&gt;&lt;br&gt;&lt;/div&gt;" style="text;strokeColor=none;fillColor=none;align=left;verticalAlign=top;spacingLeft=4;spacingRight=4;overflow=hidden;rotatable=0;points=[[0,0.5],[1,0.5]];portConstraint=eastwest;whiteSpace=wrap;html=1;" parent="pzw-wz2uEHUIHefaO9zh-14" vertex="1">
          <mxGeometry y="60" width="270" height="100" as="geometry" />
        </mxCell>
        <mxCell id="UMMniM_WDo99d7-dq7OB-11" style="edgeStyle=orthogonalEdgeStyle;rounded=0;orthogonalLoop=1;jettySize=auto;html=1;" parent="1" source="UMMniM_WDo99d7-dq7OB-3" target="UMMniM_WDo99d7-dq7OB-9" edge="1">
          <mxGeometry relative="1" as="geometry" />
        </mxCell>
        <mxCell id="UMMniM_WDo99d7-dq7OB-3" value="" style="image;html=1;image=img/lib/clip_art/general/Full_Folder_128x128.png" parent="1" vertex="1">
          <mxGeometry x="700" y="412.1" width="80" height="80" as="geometry" />
        </mxCell>
        <mxCell id="UMMniM_WDo99d7-dq7OB-4" style="edgeStyle=orthogonalEdgeStyle;rounded=0;orthogonalLoop=1;jettySize=auto;html=1;entryX=0.5;entryY=0;entryDx=0;entryDy=0;endArrow=none;endFill=0;" parent="1" source="OuYfMwiPj5RRIvVf8Grc-4" target="UMMniM_WDo99d7-dq7OB-3" edge="1">
          <mxGeometry relative="1" as="geometry" />
        </mxCell>
        <mxCell id="UMMniM_WDo99d7-dq7OB-9" value="" style="dashed=0;outlineConnect=0;html=1;align=center;labelPosition=center;verticalLabelPosition=bottom;verticalAlign=top;shape=mxgraph.weblogos.json" parent="1" vertex="1">
          <mxGeometry x="580" y="414.2" width="70" height="75.8" as="geometry" />
        </mxCell>
        <mxCell id="CRlg4w2pdIGQZEJ0_wfm-20" style="edgeStyle=orthogonalEdgeStyle;rounded=0;orthogonalLoop=1;jettySize=auto;html=1;entryX=0;entryY=0.5;entryDx=0;entryDy=0;endArrow=diamondThin;endFill=1;" edge="1" parent="1" source="AoLBbodpri9zv-CaXp16-2" target="-3MfIwJguE4MF49JpUE5-40">
          <mxGeometry relative="1" as="geometry" />
        </mxCell>
        <mxCell id="AoLBbodpri9zv-CaXp16-2" value="Loan" style="swimlane;fontStyle=0;childLayout=stackLayout;horizontal=1;startSize=26;fillColor=#bac8d3;horizontalStack=0;resizeParent=1;resizeParentMax=0;resizeLast=0;collapsible=1;marginBottom=0;whiteSpace=wrap;html=1;strokeColor=#23445d;" parent="1" vertex="1">
          <mxGeometry x="90" y="550" width="180" height="170" as="geometry" />
        </mxCell>
        <mxCell id="AoLBbodpri9zv-CaXp16-3" value="+ LoanId : string&lt;div&gt;+ Amount : decimal&lt;br&gt;&lt;div&gt;+ Currency : ICurrency&lt;br&gt;&lt;div&gt;+ Interest : decimal&lt;/div&gt;&lt;div&gt;+ Total: deciaml&lt;/div&gt;&lt;div&gt;+ AmountPaid: decimal&lt;/div&gt;&lt;/div&gt;&lt;/div&gt;&lt;div&gt;&lt;br&gt;&lt;/div&gt;" style="text;strokeColor=none;fillColor=none;align=left;verticalAlign=top;spacingLeft=4;spacingRight=4;overflow=hidden;rotatable=0;points=[[0,0.5],[1,0.5]];portConstraint=eastwest;whiteSpace=wrap;html=1;" parent="AoLBbodpri9zv-CaXp16-2" vertex="1">
          <mxGeometry y="26" width="180" height="94" as="geometry" />
        </mxCell>
        <mxCell id="ERKn1DIxRcRQwM_Xs17e-7" value="" style="line;strokeWidth=1;rotatable=0;dashed=0;labelPosition=right;align=left;verticalAlign=middle;spacingTop=0;spacingLeft=6;points=[];portConstraint=eastwest;fillColor=#bac8d3;strokeColor=#23445d;" parent="AoLBbodpri9zv-CaXp16-2" vertex="1">
          <mxGeometry y="120" width="180" height="10" as="geometry" />
        </mxCell>
        <mxCell id="ERKn1DIxRcRQwM_Xs17e-4" value="+ Pay(decimal): void&lt;div&gt;+ CalculateTotal() : void&lt;/div&gt;" style="text;html=1;align=left;verticalAlign=middle;whiteSpace=wrap;rounded=0;" parent="AoLBbodpri9zv-CaXp16-2" vertex="1">
          <mxGeometry y="130" width="180" height="40" as="geometry" />
        </mxCell>
        <mxCell id="AoLBbodpri9zv-CaXp16-10" value="ApiCaller" style="swimlane;fontStyle=1;align=center;verticalAlign=top;childLayout=stackLayout;horizontal=1;startSize=26;horizontalStack=0;resizeParent=1;resizeParentMax=0;resizeLast=0;collapsible=1;marginBottom=0;whiteSpace=wrap;html=1;fillColor=#eeeeee;strokeColor=#36393d;" parent="1" vertex="1">
          <mxGeometry x="560" y="56" width="240" height="56" as="geometry" />
        </mxCell>
        <mxCell id="AoLBbodpri9zv-CaXp16-13" value="&lt;div&gt;+ GetRate(ICurrency, ICurrency) : decimal&lt;/div&gt;" style="text;strokeColor=none;fillColor=none;align=left;verticalAlign=top;spacingLeft=4;spacingRight=4;overflow=hidden;rotatable=0;points=[[0,0.5],[1,0.5]];portConstraint=eastwest;whiteSpace=wrap;html=1;" parent="AoLBbodpri9zv-CaXp16-10" vertex="1">
          <mxGeometry y="26" width="240" height="30" as="geometry" />
        </mxCell>
        <mxCell id="AoLBbodpri9zv-CaXp16-15" style="edgeStyle=orthogonalEdgeStyle;rounded=0;orthogonalLoop=1;jettySize=auto;html=1;entryX=0.5;entryY=0;entryDx=0;entryDy=0;endArrow=diamondThin;endFill=0;" parent="1" source="pzw-wz2uEHUIHefaO9zh-8" target="pzw-wz2uEHUIHefaO9zh-14" edge="1">
          <mxGeometry relative="1" as="geometry" />
        </mxCell>
        <mxCell id="AoLBbodpri9zv-CaXp16-18" style="edgeStyle=orthogonalEdgeStyle;rounded=0;orthogonalLoop=1;jettySize=auto;html=1;entryX=0.496;entryY=0.998;entryDx=0;entryDy=0;entryPerimeter=0;endArrow=none;endFill=0;" parent="1" source="OuYfMwiPj5RRIvVf8Grc-1" target="-3MfIwJguE4MF49JpUE5-52" edge="1">
          <mxGeometry relative="1" as="geometry" />
        </mxCell>
        <mxCell id="CRlg4w2pdIGQZEJ0_wfm-24" style="edgeStyle=orthogonalEdgeStyle;rounded=0;orthogonalLoop=1;jettySize=auto;html=1;endArrow=diamondThin;endFill=0;" edge="1" parent="1" source="CRlg4w2pdIGQZEJ0_wfm-1" target="-3MfIwJguE4MF49JpUE5-40">
          <mxGeometry relative="1" as="geometry" />
        </mxCell>
        <mxCell id="CRlg4w2pdIGQZEJ0_wfm-25" style="edgeStyle=orthogonalEdgeStyle;rounded=0;orthogonalLoop=1;jettySize=auto;html=1;entryX=1;entryY=0.5;entryDx=0;entryDy=0;endArrow=diamondThin;endFill=0;" edge="1" parent="1" source="CRlg4w2pdIGQZEJ0_wfm-1" target="AoLBbodpri9zv-CaXp16-3">
          <mxGeometry relative="1" as="geometry" />
        </mxCell>
        <mxCell id="CRlg4w2pdIGQZEJ0_wfm-1" value="&amp;lt;&amp;lt;ICurrency&amp;gt;&amp;gt;" style="swimlane;fontStyle=1;align=center;verticalAlign=top;childLayout=stackLayout;horizontal=1;startSize=26;horizontalStack=0;resizeParent=1;resizeParentMax=0;resizeLast=0;collapsible=1;marginBottom=0;whiteSpace=wrap;html=1;fillColor=#d5e8d4;strokeColor=#82b366;" vertex="1" parent="1">
          <mxGeometry x="460" y="535" width="170" height="80" as="geometry" />
        </mxCell>
        <mxCell id="CRlg4w2pdIGQZEJ0_wfm-2" value="+ Name : string&lt;div&gt;+ CurrencyCode : string&lt;/div&gt;&lt;div&gt;+ Format : NumberFormatInfo&lt;/div&gt;" style="text;strokeColor=none;fillColor=none;align=left;verticalAlign=top;spacingLeft=4;spacingRight=4;overflow=hidden;rotatable=0;points=[[0,0.5],[1,0.5]];portConstraint=eastwest;whiteSpace=wrap;html=1;" vertex="1" parent="CRlg4w2pdIGQZEJ0_wfm-1">
          <mxGeometry y="26" width="170" height="54" as="geometry" />
        </mxCell>
        <mxCell id="CRlg4w2pdIGQZEJ0_wfm-5" style="edgeStyle=orthogonalEdgeStyle;rounded=0;orthogonalLoop=1;jettySize=auto;html=1;entryX=0.012;entryY=0.451;entryDx=0;entryDy=0;dashed=1;entryPerimeter=0;" edge="1" parent="1" source="CRlg4w2pdIGQZEJ0_wfm-6" target="CRlg4w2pdIGQZEJ0_wfm-2">
          <mxGeometry relative="1" as="geometry">
            <mxPoint x="460" y="605.9999999999998" as="targetPoint" />
          </mxGeometry>
        </mxCell>
        <mxCell id="CRlg4w2pdIGQZEJ0_wfm-6" value="USD" style="swimlane;fontStyle=1;align=center;verticalAlign=top;childLayout=stackLayout;horizontal=1;startSize=26;horizontalStack=0;resizeParent=1;resizeParentMax=0;resizeLast=0;collapsible=1;marginBottom=0;whiteSpace=wrap;html=1;fillColor=#d5e8d4;strokeColor=#82b366;" vertex="1" parent="1">
          <mxGeometry x="290" y="655" width="170" height="80" as="geometry" />
        </mxCell>
        <mxCell id="CRlg4w2pdIGQZEJ0_wfm-7" value="+ Name : string&lt;div&gt;+ CurrencyCode : string&lt;/div&gt;&lt;div&gt;+ Format : NumberFormatInfo&lt;/div&gt;" style="text;strokeColor=none;fillColor=none;align=left;verticalAlign=top;spacingLeft=4;spacingRight=4;overflow=hidden;rotatable=0;points=[[0,0.5],[1,0.5]];portConstraint=eastwest;whiteSpace=wrap;html=1;" vertex="1" parent="CRlg4w2pdIGQZEJ0_wfm-6">
          <mxGeometry y="26" width="170" height="54" as="geometry" />
        </mxCell>
        <mxCell id="CRlg4w2pdIGQZEJ0_wfm-10" value="EUR" style="swimlane;fontStyle=1;align=center;verticalAlign=top;childLayout=stackLayout;horizontal=1;startSize=26;horizontalStack=0;resizeParent=1;resizeParentMax=0;resizeLast=0;collapsible=1;marginBottom=0;whiteSpace=wrap;html=1;fillColor=#d5e8d4;strokeColor=#82b366;" vertex="1" parent="1">
          <mxGeometry x="460" y="655" width="170" height="80" as="geometry" />
        </mxCell>
        <mxCell id="CRlg4w2pdIGQZEJ0_wfm-11" value="+ Name : string&lt;div&gt;+ CurrencyCode : string&lt;/div&gt;&lt;div&gt;+ Format : NumberFormatInfo&lt;/div&gt;" style="text;strokeColor=none;fillColor=none;align=left;verticalAlign=top;spacingLeft=4;spacingRight=4;overflow=hidden;rotatable=0;points=[[0,0.5],[1,0.5]];portConstraint=eastwest;whiteSpace=wrap;html=1;" vertex="1" parent="CRlg4w2pdIGQZEJ0_wfm-10">
          <mxGeometry y="26" width="170" height="54" as="geometry" />
        </mxCell>
        <mxCell id="CRlg4w2pdIGQZEJ0_wfm-14" style="edgeStyle=orthogonalEdgeStyle;rounded=0;orthogonalLoop=1;jettySize=auto;html=1;dashed=1;" edge="1" parent="1" source="CRlg4w2pdIGQZEJ0_wfm-15" target="CRlg4w2pdIGQZEJ0_wfm-2">
          <mxGeometry relative="1" as="geometry">
            <mxPoint x="620" y="605.9999999999998" as="targetPoint" />
          </mxGeometry>
        </mxCell>
        <mxCell id="CRlg4w2pdIGQZEJ0_wfm-15" value="SEK" style="swimlane;fontStyle=1;align=center;verticalAlign=top;childLayout=stackLayout;horizontal=1;startSize=26;horizontalStack=0;resizeParent=1;resizeParentMax=0;resizeLast=0;collapsible=1;marginBottom=0;whiteSpace=wrap;html=1;fillColor=#d5e8d4;strokeColor=#82b366;" vertex="1" parent="1">
          <mxGeometry x="630" y="655" width="170" height="80" as="geometry" />
        </mxCell>
        <mxCell id="CRlg4w2pdIGQZEJ0_wfm-16" value="+ Name : string&lt;div&gt;+ CurrencyCode : string&lt;/div&gt;&lt;div&gt;+ Format : NumberFormatInfo&lt;/div&gt;" style="text;strokeColor=none;fillColor=none;align=left;verticalAlign=top;spacingLeft=4;spacingRight=4;overflow=hidden;rotatable=0;points=[[0,0.5],[1,0.5]];portConstraint=eastwest;whiteSpace=wrap;html=1;" vertex="1" parent="CRlg4w2pdIGQZEJ0_wfm-15">
          <mxGeometry y="26" width="170" height="54" as="geometry" />
        </mxCell>
        <mxCell id="CRlg4w2pdIGQZEJ0_wfm-19" style="edgeStyle=orthogonalEdgeStyle;rounded=0;orthogonalLoop=1;jettySize=auto;html=1;dashed=1;entryX=0.5;entryY=1;entryDx=0;entryDy=0;entryPerimeter=0;" edge="1" parent="1" source="CRlg4w2pdIGQZEJ0_wfm-10" target="CRlg4w2pdIGQZEJ0_wfm-2">
          <mxGeometry relative="1" as="geometry">
            <Array as="points" />
            <mxPoint x="540.0344827586209" y="618.9999999999998" as="targetPoint" />
          </mxGeometry>
        </mxCell>
        <mxCell id="CRlg4w2pdIGQZEJ0_wfm-26" style="edgeStyle=orthogonalEdgeStyle;rounded=0;orthogonalLoop=1;jettySize=auto;html=1;entryX=0.305;entryY=0.022;entryDx=0;entryDy=0;entryPerimeter=0;endArrow=diamondThin;endFill=1;" edge="1" parent="1" source="-3MfIwJguE4MF49JpUE5-50" target="pzw-wz2uEHUIHefaO9zh-14">
          <mxGeometry relative="1" as="geometry" />
        </mxCell>
      </root>
    </mxGraphModel>
  </diagram>
</mxfile>
